solid DuckyBR_Top
facet normal 0.0 0.0 -1.0
  outer loop
    vertex 7.848173040408689 23.823952125789972 0.0
    vertex 9.279607142848944 22.39251802334972 0.0
    vertex 7.848173040408689 3.7336180197463102 0.0
  endloop
endfacet
facet normal 0.0 0.0 -1.0
  outer loop
    vertex 9.279607142848944 22.39251802334972 0.0
    vertex 7.848173040408689 23.823952125789972 0.0
    vertex 13.834783142848945 23.82395212578997 0.0
  endloop
endfacet
facet normal 0.0 0.0 -1.0
  outer loop
    vertex 9.279607142848944 22.39251802334972 0.0
    vertex 13.834783142848945 23.82395212578997 0.0
    vertex 13.834783142848945 22.39251802334972 0.0
  endloop
endfacet
facet normal 0.0 0.0 -1.0
  outer loop
    vertex 30.979505146452357 23.823952125789972 0.0
    vertex 25.190865044012106 22.39251802334972 0.0
    vertex 25.190865044012106 23.82395212578997 0.0
  endloop
endfacet
facet normal 0.0 0.0 -1.0
  outer loop
    vertex 25.190865044012106 22.39251802334972 0.0
    vertex 30.979505146452357 23.823952125789972 0.0
    vertex 29.5480710440121 22.39251802334972 0.0
  endloop
endfacet
facet normal 0.0 0.0 -1.0
  outer loop
    vertex 29.5480710440121 22.39251802334972 0.0
    vertex 30.979505146452357 23.823952125789972 0.0
    vertex 29.5480710440121 17.105292755295054 0.0
  endloop
endfacet
facet normal 0.0 0.0 -1.0
  outer loop
    vertex 29.5480710440121 17.105292755295054 0.0
    vertex 30.979505146452357 23.823952125789972 0.0
    vertex 29.550045180364712 15.661698546714765 0.0
  endloop
endfacet
facet normal 0.0 0.0 -1.0
  outer loop
    vertex 29.550045180364712 15.661698546714765 0.0
    vertex 30.979505146452357 23.823952125789972 0.0
    vertex 30.979505146452357 14.869319569822203 0.0
  endloop
endfacet
facet normal 0.0 0.0 -1.0
  outer loop
    vertex 22.78970672885949 13.667910717874516 0.0
    vertex 22.78970672885949 9.382545866621776 0.0
    vertex 22.380261697981318 11.525228292248146 0.0
  endloop
endfacet
facet normal 0.0 0.0 -1.0
  outer loop
    vertex 22.78970672885949 9.382545866621776 0.0
    vertex 22.78970672885949 13.667910717874516 0.0
    vertex 23.960344527113612 15.508655229124697 0.0
  endloop
endfacet
facet normal 0.0 0.0 -1.0
  outer loop
    vertex 22.78970672885949 9.382545866621776 0.0
    vertex 23.960344527113612 15.508655229124697 0.0
    vertex 23.83759614645236 11.525228292248146 0.0
  endloop
endfacet
facet normal 0.0 0.0 -1.0
  outer loop
    vertex 23.83759614645236 11.525228292248146 0.0
    vertex 23.960344527113612 15.508655229124697 0.0
    vertex 24.144360416370052 13.130568106857641 0.0
  endloop
endfacet
facet normal 0.0 0.0 -1.0
  outer loop
    vertex 24.144360416370052 13.130568106857641 0.0
    vertex 23.960344527113612 15.508655229124697 0.0
    vertex 25.727213672858305 16.78807174934567 0.0
  endloop
endfacet
facet normal 0.0 0.0 -1.0
  outer loop
    vertex 24.144360416370052 13.130568106857641 0.0
    vertex 25.727213672858305 16.78807174934567 0.0
    vertex 25.021425278408476 14.509690097635147 0.0
  endloop
endfacet
facet normal 0.0 0.0 -1.0
  outer loop
    vertex 25.021425278408476 14.509690097635147 0.0
    vertex 25.727213672858305 16.78807174934567 0.0
    vertex 26.345198392401258 15.468254117582921 0.0
  endloop
endfacet
facet normal 0.0 0.0 -1.0
  outer loop
    vertex 26.345198392401258 15.468254117582921 0.0
    vertex 25.727213672858305 16.78807174934567 0.0
    vertex 27.84133429933342 17.32587021263042 0.0
  endloop
endfacet
facet normal 0.0 0.0 -1.0
  outer loop
    vertex 26.345198392401258 15.468254117582921 0.0
    vertex 27.84133429933342 17.32587021263042 0.0
    vertex 27.929139145345797 15.871183303458162 0.0
  endloop
endfacet
facet normal 0.0 0.0 -1.0
  outer loop
    vertex 27.929139145345797 15.871183303458162 0.0
    vertex 27.84133429933342 17.32587021263042 0.0
    vertex 29.5480710440121 17.105292755295054 0.0
  endloop
endfacet
facet normal 0.0 0.0 -1.0
  outer loop
    vertex 27.929139145345797 15.871183303458162 0.0
    vertex 29.5480710440121 17.105292755295054 0.0
    vertex 29.550045180364712 15.661698546714765 0.0
  endloop
endfacet
facet normal 0.0 0.0 -1.0
  outer loop
    vertex 23.83759614645236 11.525228292248146 0.0
    vertex 23.960344527113612 7.541801355371596 0.0
    vertex 22.78970672885949 9.382545866621776 0.0
  endloop
endfacet
facet normal 0.0 0.0 -1.0
  outer loop
    vertex 23.960344527113612 7.541801355371596 0.0
    vertex 23.83759614645236 11.525228292248146 0.0
    vertex 24.144360416370052 9.91988847763865 0.0
  endloop
endfacet
facet normal 0.0 0.0 -1.0
  outer loop
    vertex 23.960344527113612 7.541801355371596 0.0
    vertex 24.144360416370052 9.91988847763865 0.0
    vertex 25.727213672858305 6.262384835150626 0.0
  endloop
endfacet
facet normal 0.0 0.0 -1.0
  outer loop
    vertex 25.727213672858305 6.262384835150626 0.0
    vertex 24.144360416370052 9.91988847763865 0.0
    vertex 25.021425278408476 8.540766486861147 0.0
  endloop
endfacet
facet normal 0.0 0.0 -1.0
  outer loop
    vertex 25.727213672858305 6.262384835150626 0.0
    vertex 25.021425278408476 8.540766486861147 0.0
    vertex 26.345198392401258 7.582202466913373 0.0
  endloop
endfacet
facet normal 0.0 0.0 -1.0
  outer loop
    vertex 25.727213672858305 6.262384835150626 0.0
    vertex 26.345198392401258 7.582202466913373 0.0
    vertex 27.84133429933342 5.724586371865874 0.0
  endloop
endfacet
facet normal 0.0 0.0 -1.0
  outer loop
    vertex 27.84133429933342 5.724586371865874 0.0
    vertex 26.345198392401258 7.582202466913373 0.0
    vertex 27.929139145345797 7.179273281038134 0.0
  endloop
endfacet
facet normal 0.0 0.0 -1.0
  outer loop
    vertex 27.84133429933342 5.724586371865874 0.0
    vertex 27.929139145345797 7.179273281038134 0.0
    vertex 29.5480710440121 5.945163829201243 0.0
  endloop
endfacet
facet normal 0.0 0.0 -1.0
  outer loop
    vertex 29.5480710440121 5.945163829201243 0.0
    vertex 27.929139145345797 7.179273281038134 0.0
    vertex 29.550045180364712 7.388758037781528 0.0
  endloop
endfacet
facet normal 0.0 0.0 -1.0
  outer loop
    vertex 29.5480710440121 5.945163829201243 0.0
    vertex 29.550045180364712 7.388758037781528 0.0
    vertex 29.5480710440121 5.165052122186566 0.0
  endloop
endfacet
facet normal 0.0 0.0 -1.0
  outer loop
    vertex 7.848173040408689 3.7336180197463102 0.0
    vertex 9.279607142848944 5.165052122186566 0.0
    vertex 30.979505146452357 3.7336180197463102 0.0
  endloop
endfacet
facet normal 0.0 0.0 -1.0
  outer loop
    vertex 9.279607142848944 5.165052122186566 0.0
    vertex 7.848173040408689 3.7336180197463102 0.0
    vertex 9.279607142848944 22.39251802334972 0.0
  endloop
endfacet
facet normal 0.0 0.0 -1.0
  outer loop
    vertex 30.979505146452357 3.7336180197463102 0.0
    vertex 9.279607142848944 5.165052122186566 0.0
    vertex 29.5480710440121 5.165052122186566 0.0
  endloop
endfacet
facet normal 0.0 0.0 -1.0
  outer loop
    vertex 30.979505146452357 3.7336180197463102 0.0
    vertex 29.5480710440121 5.165052122186566 0.0
    vertex 29.550045180364712 7.388758037781528 0.0
  endloop
endfacet
facet normal 0.0 0.0 -1.0
  outer loop
    vertex 30.979505146452357 3.7336180197463102 0.0
    vertex 29.550045180364712 7.388758037781528 0.0
    vertex 30.979505146452357 8.18113701467409 0.0
  endloop
endfacet
facet normal 0.0 0.0 1.0
  outer loop
    vertex 7.848173040408689 3.7336180197463102 0.9118419999999999
    vertex 25.021425278408476 8.540766486861147 0.9118419999999999
    vertex 7.848173040408689 23.823952125789972 0.9118419999999999
  endloop
endfacet
facet normal 0.0 0.0 1.0
  outer loop
    vertex 25.021425278408476 8.540766486861147 0.9118419999999999
    vertex 7.848173040408689 3.7336180197463102 0.9118419999999999
    vertex 30.979505146452357 3.7336180197463102 0.9118419999999999
  endloop
endfacet
facet normal 0.0 0.0 1.0
  outer loop
    vertex 7.848173040408689 23.823952125789972 0.9118419999999999
    vertex 25.021425278408476 8.540766486861147 0.9118419999999999
    vertex 24.144360416370052 9.91988847763865 0.9118419999999999
  endloop
endfacet
facet normal 0.0 0.0 1.0
  outer loop
    vertex 7.848173040408689 23.823952125789972 0.9118419999999999
    vertex 24.144360416370052 9.91988847763865 0.9118419999999999
    vertex 23.83759614645236 11.525228292248146 0.9118419999999999
  endloop
endfacet
facet normal 0.0 0.0 1.0
  outer loop
    vertex 25.021425278408476 8.540766486861147 0.9118419999999999
    vertex 30.979505146452357 3.7336180197463102 0.9118419999999999
    vertex 26.345198392401258 7.582202466913373 0.9118419999999999
  endloop
endfacet
facet normal 0.0 0.0 1.0
  outer loop
    vertex 26.345198392401258 7.582202466913373 0.9118419999999999
    vertex 30.979505146452357 3.7336180197463102 0.9118419999999999
    vertex 27.929139145345797 7.179273281038134 0.9118419999999999
  endloop
endfacet
facet normal 0.0 0.0 1.0
  outer loop
    vertex 27.929139145345797 7.179273281038134 0.9118419999999999
    vertex 30.979505146452357 3.7336180197463102 0.9118419999999999
    vertex 29.550045180364712 7.388758037781528 0.9118419999999999
  endloop
endfacet
facet normal 0.0 0.0 1.0
  outer loop
    vertex 29.550045180364712 7.388758037781528 0.9118419999999999
    vertex 30.979505146452357 3.7336180197463102 0.9118419999999999
    vertex 30.979505146452357 8.18113701467409 0.9118419999999999
  endloop
endfacet
facet normal 0.0 0.0 1.0
  outer loop
    vertex 7.848173040408689 23.823952125789972 0.9118419999999999
    vertex 25.021425278408476 14.509690097635147 0.9118419999999999
    vertex 30.979505146452357 23.823952125789972 0.9118419999999999
  endloop
endfacet
facet normal 0.0 0.0 1.0
  outer loop
    vertex 25.021425278408476 14.509690097635147 0.9118419999999999
    vertex 7.848173040408689 23.823952125789972 0.9118419999999999
    vertex 24.144360416370052 13.130568106857641 0.9118419999999999
  endloop
endfacet
facet normal 0.0 0.0 1.0
  outer loop
    vertex 24.144360416370052 13.130568106857641 0.9118419999999999
    vertex 7.848173040408689 23.823952125789972 0.9118419999999999
    vertex 23.83759614645236 11.525228292248146 0.9118419999999999
  endloop
endfacet
facet normal 0.0 0.0 1.0
  outer loop
    vertex 30.979505146452357 23.823952125789972 0.9118419999999999
    vertex 25.021425278408476 14.509690097635147 0.9118419999999999
    vertex 26.345198392401258 15.468254117582921 0.9118419999999999
  endloop
endfacet
facet normal 0.0 0.0 1.0
  outer loop
    vertex 30.979505146452357 23.823952125789972 0.9118419999999999
    vertex 26.345198392401258 15.468254117582921 0.9118419999999999
    vertex 27.929139145345797 15.871183303458162 0.9118419999999999
  endloop
endfacet
facet normal 0.0 0.0 1.0
  outer loop
    vertex 30.979505146452357 23.823952125789972 0.9118419999999999
    vertex 27.929139145345797 15.871183303458162 0.9118419999999999
    vertex 29.550045180364712 15.661698546714765 0.9118419999999999
  endloop
endfacet
facet normal 0.0 0.0 1.0
  outer loop
    vertex 30.979505146452357 23.823952125789972 0.9118419999999999
    vertex 29.550045180364712 15.661698546714765 0.9118419999999999
    vertex 30.979505146452357 14.869319569822203 0.9118419999999999
  endloop
endfacet
facet normal 1.0 0.0 0.0
  outer loop
    vertex 30.979505146452357 23.823952125789972 0.0
    vertex 30.979505146452357 14.869319569822203 0.9118419999999999
    vertex 30.979505146452357 14.869319569822203 0.0
  endloop
endfacet
facet normal 1.0 0.0 0.0
  outer loop
    vertex 30.979505146452357 14.869319569822203 0.9118419999999999
    vertex 30.979505146452357 23.823952125789972 0.0
    vertex 30.979505146452357 23.823952125789972 0.9118419999999999
  endloop
endfacet
facet normal -0.48481728626758674 -0.8746154577505093 -0.0
  outer loop
    vertex 30.979505146452357 14.869319569822203 0.9118419999999999
    vertex 29.550045180364712 15.661698546714765 0.0
    vertex 30.979505146452357 14.869319569822203 0.0
  endloop
endfacet
facet normal -0.48481728626758674 -0.8746154577505093 -0.0
  outer loop
    vertex 29.550045180364712 15.661698546714765 0.0
    vertex 30.979505146452357 14.869319569822203 0.9118419999999999
    vertex 29.550045180364712 15.661698546714765 0.9118419999999999
  endloop
endfacet
facet normal -0.1281733037353534 -0.9917517855842584 -0.0
  outer loop
    vertex 29.550045180364712 15.661698546714765 0.9118419999999999
    vertex 27.929139145345797 15.871183303458162 0.0
    vertex 29.550045180364712 15.661698546714765 0.0
  endloop
endfacet
facet normal -0.1281733037353534 -0.9917517855842584 -0.0
  outer loop
    vertex 27.929139145345797 15.871183303458162 0.0
    vertex 29.550045180364712 15.661698546714765 0.9118419999999999
    vertex 27.929139145345797 15.871183303458162 0.9118419999999999
  endloop
endfacet
facet normal 0.24653232878555922 -0.9691345679850498 0.0
  outer loop
    vertex 27.929139145345797 15.871183303458162 0.9118419999999999
    vertex 26.345198392401258 15.468254117582921 0.0
    vertex 27.929139145345797 15.871183303458162 0.0
  endloop
endfacet
facet normal 0.24653232878555922 -0.9691345679850498 0.0
  outer loop
    vertex 26.345198392401258 15.468254117582921 0.0
    vertex 27.929139145345797 15.871183303458162 0.9118419999999999
    vertex 26.345198392401258 15.468254117582921 0.9118419999999999
  endloop
endfacet
facet normal 0.5864976487479943 -0.8099509293858945 0.0
  outer loop
    vertex 26.345198392401258 15.468254117582921 0.9118419999999999
    vertex 25.021425278408476 14.509690097635147 0.0
    vertex 26.345198392401258 15.468254117582921 0.0
  endloop
endfacet
facet normal 0.5864976487479943 -0.8099509293858945 0.0
  outer loop
    vertex 25.021425278408476 14.509690097635147 0.0
    vertex 26.345198392401258 15.468254117582921 0.9118419999999999
    vertex 25.021425278408476 14.509690097635147 0.9118419999999999
  endloop
endfacet
facet normal 0.8438161542634673 -0.536632367458405 0.0
  outer loop
    vertex 25.021425278408476 14.509690097635147 0.0
    vertex 24.144360416370052 13.130568106857641 0.9118419999999999
    vertex 24.144360416370052 13.130568106857641 0.0
  endloop
endfacet
facet normal 0.8438161542634673 -0.536632367458405 0.0
  outer loop
    vertex 24.144360416370052 13.130568106857641 0.9118419999999999
    vertex 25.021425278408476 14.509690097635147 0.0
    vertex 25.021425278408476 14.509690097635147 0.9118419999999999
  endloop
endfacet
facet normal 0.9822275895159397 -0.1876937995611643 0.0
  outer loop
    vertex 24.144360416370052 13.130568106857641 0.0
    vertex 23.83759614645236 11.525228292248146 0.9118419999999999
    vertex 23.83759614645236 11.525228292248146 0.0
  endloop
endfacet
facet normal 0.9822275895159397 -0.1876937995611643 0.0
  outer loop
    vertex 23.83759614645236 11.525228292248146 0.9118419999999999
    vertex 24.144360416370052 13.130568106857641 0.0
    vertex 24.144360416370052 13.130568106857641 0.9118419999999999
  endloop
endfacet
facet normal 0.9822275895159397 0.1876937995611643 0.0
  outer loop
    vertex 23.83759614645236 11.525228292248146 0.0
    vertex 24.144360416370052 9.91988847763865 0.9118419999999999
    vertex 24.144360416370052 9.91988847763865 0.0
  endloop
endfacet
facet normal 0.9822275895159397 0.1876937995611643 0.0
  outer loop
    vertex 24.144360416370052 9.91988847763865 0.9118419999999999
    vertex 23.83759614645236 11.525228292248146 0.0
    vertex 23.83759614645236 11.525228292248146 0.9118419999999999
  endloop
endfacet
facet normal 0.843816154263467 0.5366323674584054 0.0
  outer loop
    vertex 24.144360416370052 9.91988847763865 0.0
    vertex 25.021425278408476 8.540766486861147 0.9118419999999999
    vertex 25.021425278408476 8.540766486861147 0.0
  endloop
endfacet
facet normal 0.843816154263467 0.5366323674584054 0.0
  outer loop
    vertex 25.021425278408476 8.540766486861147 0.9118419999999999
    vertex 24.144360416370052 9.91988847763865 0.0
    vertex 24.144360416370052 9.91988847763865 0.9118419999999999
  endloop
endfacet
facet normal 0.5864976487479943 0.8099509293858945 0.0
  outer loop
    vertex 25.021425278408476 8.540766486861147 0.9118419999999999
    vertex 26.345198392401258 7.582202466913373 0.0
    vertex 25.021425278408476 8.540766486861147 0.0
  endloop
endfacet
facet normal 0.5864976487479943 0.8099509293858945 0.0
  outer loop
    vertex 26.345198392401258 7.582202466913373 0.0
    vertex 25.021425278408476 8.540766486861147 0.9118419999999999
    vertex 26.345198392401258 7.582202466913373 0.9118419999999999
  endloop
endfacet
facet normal 0.24653232878555842 0.96913456798505 0.0
  outer loop
    vertex 26.345198392401258 7.582202466913373 0.9118419999999999
    vertex 27.929139145345797 7.179273281038134 0.0
    vertex 26.345198392401258 7.582202466913373 0.0
  endloop
endfacet
facet normal 0.24653232878555842 0.96913456798505 0.0
  outer loop
    vertex 27.929139145345797 7.179273281038134 0.0
    vertex 26.345198392401258 7.582202466913373 0.9118419999999999
    vertex 27.929139145345797 7.179273281038134 0.9118419999999999
  endloop
endfacet
facet normal -0.12817330373535257 0.9917517855842586 0.0
  outer loop
    vertex 27.929139145345797 7.179273281038134 0.9118419999999999
    vertex 29.550045180364712 7.388758037781528 0.0
    vertex 27.929139145345797 7.179273281038134 0.0
  endloop
endfacet
facet normal -0.12817330373535257 0.9917517855842586 0.0
  outer loop
    vertex 29.550045180364712 7.388758037781528 0.0
    vertex 27.929139145345797 7.179273281038134 0.9118419999999999
    vertex 29.550045180364712 7.388758037781528 0.9118419999999999
  endloop
endfacet
facet normal -0.4848172862675861 0.8746154577505098 0.0
  outer loop
    vertex 29.550045180364712 7.388758037781528 0.9118419999999999
    vertex 30.979505146452357 8.18113701467409 0.0
    vertex 29.550045180364712 7.388758037781528 0.0
  endloop
endfacet
facet normal -0.4848172862675861 0.8746154577505098 0.0
  outer loop
    vertex 30.979505146452357 8.18113701467409 0.0
    vertex 29.550045180364712 7.388758037781528 0.9118419999999999
    vertex 30.979505146452357 8.18113701467409 0.9118419999999999
  endloop
endfacet
facet normal 1.0 0.0 0.0
  outer loop
    vertex 30.979505146452357 8.18113701467409 0.0
    vertex 30.979505146452357 3.7336180197463102 0.9118419999999999
    vertex 30.979505146452357 3.7336180197463102 0.0
  endloop
endfacet
facet normal 1.0 0.0 0.0
  outer loop
    vertex 30.979505146452357 3.7336180197463102 0.9118419999999999
    vertex 30.979505146452357 8.18113701467409 0.0
    vertex 30.979505146452357 8.18113701467409 0.9118419999999999
  endloop
endfacet
facet normal -0.0 -1.0 -0.0
  outer loop
    vertex 30.979505146452357 3.7336180197463102 0.9118419999999999
    vertex 7.848173040408689 3.7336180197463102 0.0
    vertex 30.979505146452357 3.7336180197463102 0.0
  endloop
endfacet
facet normal -0.0 -1.0 -0.0
  outer loop
    vertex 7.848173040408689 3.7336180197463102 0.0
    vertex 30.979505146452357 3.7336180197463102 0.9118419999999999
    vertex 7.848173040408689 3.7336180197463102 0.9118419999999999
  endloop
endfacet
facet normal -1.0 0.0 0.0
  outer loop
    vertex 7.848173040408689 23.823952125789972 0.9118419999999999
    vertex 7.848173040408689 3.7336180197463102 0.0
    vertex 7.848173040408689 3.7336180197463102 0.9118419999999999
  endloop
endfacet
facet normal -1.0 0.0 0.0
  outer loop
    vertex 7.848173040408689 3.7336180197463102 0.0
    vertex 7.848173040408689 23.823952125789972 0.9118419999999999
    vertex 7.848173040408689 23.823952125789972 0.0
  endloop
endfacet
facet normal 4.655742210887828e-19 1.0 -1.5462768756449162e-15
  outer loop
    vertex 7.848173040408689 23.823952125789972 0.9118419999999999
    vertex 13.834783142848945 23.82395212578997 0.0
    vertex 7.848173040408689 23.823952125789972 0.0
  endloop
endfacet
facet normal 4.655742210887828e-19 1.0 -1.5462768756449162e-15
  outer loop
    vertex 13.834783142848945 23.82395212578997 0.0
    vertex 7.848173040408689 23.823952125789972 0.9118419999999999
    vertex 25.190865044012106 23.82395212578997 0.0
  endloop
endfacet
facet normal 4.655742210887828e-19 1.0 -1.5462768756449162e-15
  outer loop
    vertex 25.190865044012106 23.82395212578997 0.0
    vertex 7.848173040408689 23.823952125789972 0.9118419999999999
    vertex 30.979505146452357 23.823952125789972 0.0
  endloop
endfacet
facet normal 4.655742210887828e-19 1.0 -1.5462768756449162e-15
  outer loop
    vertex 30.979505146452357 23.823952125789972 0.0
    vertex 7.848173040408689 23.823952125789972 0.9118419999999999
    vertex 30.979505146452357 23.823952125789972 0.9118419999999999
  endloop
endfacet
facet normal 0.0 0.0 -1.0
  outer loop
    vertex 25.190865044012106 23.82395212578997 -1.699631
    vertex 13.834783142848945 22.39251802334972 -1.699631
    vertex 13.834783142848945 23.82395212578997 -1.699631
  endloop
endfacet
facet normal 0.0 0.0 -1.0
  outer loop
    vertex 13.834783142848945 22.39251802334972 -1.699631
    vertex 25.190865044012106 23.82395212578997 -1.699631
    vertex 22.78970672885949 13.667910717874516 -1.699631
  endloop
endfacet
facet normal 0.0 0.0 -1.0
  outer loop
    vertex 13.834783142848945 22.39251802334972 -1.699631
    vertex 22.78970672885949 13.667910717874516 -1.699631
    vertex 22.380261697981318 11.525228292248146 -1.699631
  endloop
endfacet
facet normal 0.0 0.0 -1.0
  outer loop
    vertex 22.78970672885949 13.667910717874516 -1.699631
    vertex 25.190865044012106 23.82395212578997 -1.699631
    vertex 23.960344527113612 15.508655229124697 -1.699631
  endloop
endfacet
facet normal 0.0 0.0 -1.0
  outer loop
    vertex 23.960344527113612 15.508655229124697 -1.699631
    vertex 25.190865044012106 23.82395212578997 -1.699631
    vertex 25.190865044012106 22.39251802334972 -1.699631
  endloop
endfacet
facet normal 0.0 0.0 -1.0
  outer loop
    vertex 23.960344527113612 15.508655229124697 -1.699631
    vertex 25.190865044012106 22.39251802334972 -1.699631
    vertex 25.727213672858305 16.78807174934567 -1.699631
  endloop
endfacet
facet normal 0.0 0.0 -1.0
  outer loop
    vertex 25.727213672858305 16.78807174934567 -1.699631
    vertex 25.190865044012106 22.39251802334972 -1.699631
    vertex 29.5480710440121 22.39251802334972 -1.699631
  endloop
endfacet
facet normal 0.0 0.0 -1.0
  outer loop
    vertex 25.727213672858305 16.78807174934567 -1.699631
    vertex 29.5480710440121 22.39251802334972 -1.699631
    vertex 27.84133429933342 17.32587021263042 -1.699631
  endloop
endfacet
facet normal 0.0 0.0 -1.0
  outer loop
    vertex 27.84133429933342 17.32587021263042 -1.699631
    vertex 29.5480710440121 22.39251802334972 -1.699631
    vertex 29.5480710440121 17.105292755295054 -1.699631
  endloop
endfacet
facet normal 0.0 0.0 -1.0
  outer loop
    vertex 13.834783142848945 22.39251802334972 -1.699631
    vertex 9.279607142848944 5.165052122186566 -1.699631
    vertex 9.279607142848944 22.39251802334972 -1.699631
  endloop
endfacet
facet normal 0.0 0.0 -1.0
  outer loop
    vertex 9.279607142848944 5.165052122186566 -1.699631
    vertex 13.834783142848945 22.39251802334972 -1.699631
    vertex 23.960344527113612 7.541801355371596 -1.699631
  endloop
endfacet
facet normal 0.0 0.0 -1.0
  outer loop
    vertex 9.279607142848944 5.165052122186566 -1.699631
    vertex 23.960344527113612 7.541801355371596 -1.699631
    vertex 25.727213672858305 6.262384835150626 -1.699631
  endloop
endfacet
facet normal 0.0 0.0 -1.0
  outer loop
    vertex 9.279607142848944 5.165052122186566 -1.699631
    vertex 25.727213672858305 6.262384835150626 -1.699631
    vertex 29.5480710440121 5.165052122186566 -1.699631
  endloop
endfacet
facet normal 0.0 0.0 -1.0
  outer loop
    vertex 23.960344527113612 7.541801355371596 -1.699631
    vertex 13.834783142848945 22.39251802334972 -1.699631
    vertex 22.78970672885949 9.382545866621776 -1.699631
  endloop
endfacet
facet normal 0.0 0.0 -1.0
  outer loop
    vertex 22.78970672885949 9.382545866621776 -1.699631
    vertex 13.834783142848945 22.39251802334972 -1.699631
    vertex 22.380261697981318 11.525228292248146 -1.699631
  endloop
endfacet
facet normal 0.0 0.0 -1.0
  outer loop
    vertex 29.5480710440121 5.165052122186566 -1.699631
    vertex 25.727213672858305 6.262384835150626 -1.699631
    vertex 27.84133429933342 5.724586371865874 -1.699631
  endloop
endfacet
facet normal 0.0 0.0 -1.0
  outer loop
    vertex 29.5480710440121 5.165052122186566 -1.699631
    vertex 27.84133429933342 5.724586371865874 -1.699631
    vertex 29.5480710440121 5.945163829201243 -1.699631
  endloop
endfacet
facet normal 0.8438161542634672 -0.5366323674584048 0.0
  outer loop
    vertex 23.960344527113612 15.508655229124697 -1.699631
    vertex 22.78970672885949 13.667910717874516 0.0
    vertex 22.78970672885949 13.667910717874516 -1.699631
  endloop
endfacet
facet normal 0.8438161542634672 -0.5366323674584048 0.0
  outer loop
    vertex 22.78970672885949 13.667910717874516 0.0
    vertex 23.960344527113612 15.508655229124697 -1.699631
    vertex 23.960344527113612 15.508655229124697 0.0
  endloop
endfacet
facet normal 0.9822275895159399 -0.18769379956116403 0.0
  outer loop
    vertex 22.78970672885949 13.667910717874516 -1.699631
    vertex 22.380261697981318 11.525228292248146 0.0
    vertex 22.380261697981318 11.525228292248146 -1.699631
  endloop
endfacet
facet normal 0.9822275895159399 -0.18769379956116403 0.0
  outer loop
    vertex 22.380261697981318 11.525228292248146 0.0
    vertex 22.78970672885949 13.667910717874516 -1.699631
    vertex 22.78970672885949 13.667910717874516 0.0
  endloop
endfacet
facet normal 0.9822275895159399 0.18769379956116403 0.0
  outer loop
    vertex 22.380261697981318 11.525228292248146 -1.699631
    vertex 22.78970672885949 9.382545866621776 0.0
    vertex 22.78970672885949 9.382545866621776 -1.699631
  endloop
endfacet
facet normal 0.9822275895159399 0.18769379956116403 0.0
  outer loop
    vertex 22.78970672885949 9.382545866621776 0.0
    vertex 22.380261697981318 11.525228292248146 -1.699631
    vertex 22.380261697981318 11.525228292248146 0.0
  endloop
endfacet
facet normal 0.8438161542634672 0.5366323674584048 0.0
  outer loop
    vertex 22.78970672885949 9.382545866621776 -1.699631
    vertex 23.960344527113612 7.541801355371596 0.0
    vertex 23.960344527113612 7.541801355371596 -1.699631
  endloop
endfacet
facet normal 0.8438161542634672 0.5366323674584048 0.0
  outer loop
    vertex 23.960344527113612 7.541801355371596 0.0
    vertex 22.78970672885949 9.382545866621776 -1.699631
    vertex 22.78970672885949 9.382545866621776 0.0
  endloop
endfacet
facet normal 0.5864976487479951 0.809950929385894 0.0
  outer loop
    vertex 23.960344527113612 7.541801355371596 0.0
    vertex 25.727213672858305 6.262384835150626 -1.699631
    vertex 23.960344527113612 7.541801355371596 -1.699631
  endloop
endfacet
facet normal 0.5864976487479951 0.809950929385894 0.0
  outer loop
    vertex 25.727213672858305 6.262384835150626 -1.699631
    vertex 23.960344527113612 7.541801355371596 0.0
    vertex 25.727213672858305 6.262384835150626 0.0
  endloop
endfacet
facet normal 0.24653232878555773 0.9691345679850502 0.0
  outer loop
    vertex 25.727213672858305 6.262384835150626 0.0
    vertex 27.84133429933342 5.724586371865874 -1.699631
    vertex 25.727213672858305 6.262384835150626 -1.699631
  endloop
endfacet
facet normal 0.24653232878555773 0.9691345679850502 0.0
  outer loop
    vertex 27.84133429933342 5.724586371865874 -1.699631
    vertex 25.727213672858305 6.262384835150626 0.0
    vertex 27.84133429933342 5.724586371865874 0.0
  endloop
endfacet
facet normal -0.12817330373535257 0.9917517855842585 0.0
  outer loop
    vertex 27.84133429933342 5.724586371865874 0.0
    vertex 29.5480710440121 5.945163829201243 -1.699631
    vertex 27.84133429933342 5.724586371865874 -1.699631
  endloop
endfacet
facet normal -0.12817330373535257 0.9917517855842585 0.0
  outer loop
    vertex 29.5480710440121 5.945163829201243 -1.699631
    vertex 27.84133429933342 5.724586371865874 0.0
    vertex 29.5480710440121 5.945163829201243 0.0
  endloop
endfacet
facet normal 1.0 0.0 0.0
  outer loop
    vertex 29.5480710440121 5.945163829201243 -1.699631
    vertex 29.5480710440121 5.165052122186566 0.0
    vertex 29.5480710440121 5.165052122186566 -1.699631
  endloop
endfacet
facet normal 1.0 0.0 0.0
  outer loop
    vertex 29.5480710440121 5.165052122186566 0.0
    vertex 29.5480710440121 5.945163829201243 -1.699631
    vertex 29.5480710440121 5.945163829201243 0.0
  endloop
endfacet
facet normal -0.0 -1.0 -0.0
  outer loop
    vertex 29.5480710440121 5.165052122186566 0.0
    vertex 9.279607142848944 5.165052122186566 -1.699631
    vertex 29.5480710440121 5.165052122186566 -1.699631
  endloop
endfacet
facet normal -0.0 -1.0 -0.0
  outer loop
    vertex 9.279607142848944 5.165052122186566 -1.699631
    vertex 29.5480710440121 5.165052122186566 0.0
    vertex 9.279607142848944 5.165052122186566 0.0
  endloop
endfacet
facet normal -1.0 0.0 0.0
  outer loop
    vertex 9.279607142848944 22.39251802334972 0.0
    vertex 9.279607142848944 5.165052122186566 -1.699631
    vertex 9.279607142848944 5.165052122186566 0.0
  endloop
endfacet
facet normal -1.0 0.0 0.0
  outer loop
    vertex 9.279607142848944 5.165052122186566 -1.699631
    vertex 9.279607142848944 22.39251802334972 0.0
    vertex 9.279607142848944 22.39251802334972 -1.699631
  endloop
endfacet
facet normal -0.0 1.0 -0.0
  outer loop
    vertex 25.190865044012106 22.39251802334972 0.0
    vertex 29.5480710440121 22.39251802334972 -1.699631
    vertex 25.190865044012106 22.39251802334972 -1.699631
  endloop
endfacet
facet normal -0.0 1.0 -0.0
  outer loop
    vertex 29.5480710440121 22.39251802334972 -1.699631
    vertex 25.190865044012106 22.39251802334972 0.0
    vertex 29.5480710440121 22.39251802334972 0.0
  endloop
endfacet
facet normal 1.0 0.0 0.0
  outer loop
    vertex 29.5480710440121 22.39251802334972 -1.699631
    vertex 29.5480710440121 17.105292755295054 0.0
    vertex 29.5480710440121 17.105292755295054 -1.699631
  endloop
endfacet
facet normal 1.0 0.0 0.0
  outer loop
    vertex 29.5480710440121 17.105292755295054 0.0
    vertex 29.5480710440121 22.39251802334972 -1.699631
    vertex 29.5480710440121 22.39251802334972 0.0
  endloop
endfacet
facet normal -0.12817330373535218 -0.9917517855842587 -0.0
  outer loop
    vertex 29.5480710440121 17.105292755295054 0.0
    vertex 27.84133429933342 17.32587021263042 -1.699631
    vertex 29.5480710440121 17.105292755295054 -1.699631
  endloop
endfacet
facet normal -0.12817330373535218 -0.9917517855842587 -0.0
  outer loop
    vertex 27.84133429933342 17.32587021263042 -1.699631
    vertex 29.5480710440121 17.105292755295054 0.0
    vertex 27.84133429933342 17.32587021263042 0.0
  endloop
endfacet
facet normal 0.24653232878555836 -0.96913456798505 0.0
  outer loop
    vertex 27.84133429933342 17.32587021263042 0.0
    vertex 25.727213672858305 16.78807174934567 -1.699631
    vertex 27.84133429933342 17.32587021263042 -1.699631
  endloop
endfacet
facet normal 0.24653232878555836 -0.96913456798505 0.0
  outer loop
    vertex 25.727213672858305 16.78807174934567 -1.699631
    vertex 27.84133429933342 17.32587021263042 0.0
    vertex 25.727213672858305 16.78807174934567 0.0
  endloop
endfacet
facet normal 0.5864976487479954 -0.809950929385894 0.0
  outer loop
    vertex 25.727213672858305 16.78807174934567 0.0
    vertex 23.960344527113612 15.508655229124697 -1.699631
    vertex 25.727213672858305 16.78807174934567 -1.699631
  endloop
endfacet
facet normal 0.5864976487479954 -0.809950929385894 0.0
  outer loop
    vertex 23.960344527113612 15.508655229124697 -1.699631
    vertex 25.727213672858305 16.78807174934567 0.0
    vertex 23.960344527113612 15.508655229124697 0.0
  endloop
endfacet
facet normal -0.0 1.0 -0.0
  outer loop
    vertex 9.279607142848944 22.39251802334972 0.0
    vertex 13.834783142848945 22.39251802334972 -1.699631
    vertex 9.279607142848944 22.39251802334972 -1.699631
  endloop
endfacet
facet normal -0.0 1.0 -0.0
  outer loop
    vertex 13.834783142848945 22.39251802334972 -1.699631
    vertex 9.279607142848944 22.39251802334972 0.0
    vertex 13.834783142848945 22.39251802334972 0.0
  endloop
endfacet
facet normal -0.0 1.0 -0.0
  outer loop
    vertex 13.834783142848945 23.82395212578997 0.0
    vertex 25.190865044012106 23.82395212578997 -1.699631
    vertex 13.834783142848945 23.82395212578997 -1.699631
  endloop
endfacet
facet normal -0.0 1.0 -0.0
  outer loop
    vertex 25.190865044012106 23.82395212578997 -1.699631
    vertex 13.834783142848945 23.82395212578997 0.0
    vertex 25.190865044012106 23.82395212578997 0.0
  endloop
endfacet
facet normal -1.0 0.0 0.0
  outer loop
    vertex 13.834783142848945 23.82395212578997 0.0
    vertex 13.834783142848945 22.39251802334972 -1.699631
    vertex 13.834783142848945 22.39251802334972 0.0
  endloop
endfacet
facet normal -1.0 0.0 0.0
  outer loop
    vertex 13.834783142848945 22.39251802334972 -1.699631
    vertex 13.834783142848945 23.82395212578997 0.0
    vertex 13.834783142848945 23.82395212578997 -1.699631
  endloop
endfacet
facet normal 1.0 -0.0 -0.0
  outer loop
    vertex 25.190865044012106 23.82395212578997 -1.699631
    vertex 25.190865044012106 22.39251802334972 0.0
    vertex 25.190865044012106 22.39251802334972 -1.699631
  endloop
endfacet
facet normal 1.0 -0.0 -0.0
  outer loop
    vertex 25.190865044012106 22.39251802334972 0.0
    vertex 25.190865044012106 23.82395212578997 -1.699631
    vertex 25.190865044012106 23.82395212578997 0.0
  endloop
endfacet
endsolid DuckyBR_Top
