solid DuckyBR_Case
facet normal 0.0 0.0 -1.0
  outer loop
    vertex 31.345525704567876 24.18812924137076 0.24590018252825285
    vertex 7.483018306166713 3.366619842969619 0.24590018252825285
    vertex 7.483018306166713 24.18812924137076 0.24590018252825285
  endloop
endfacet
facet normal 0.0 0.0 -1.0
  outer loop
    vertex 7.483018306166713 3.366619842969619 0.24590018252825285
    vertex 31.345525704567876 24.18812924137076 0.24590018252825285
    vertex 31.34552570456787 7.92771350399364 0.24590018252825285
  endloop
endfacet
facet normal 0.0 0.0 -1.0
  outer loop
    vertex 31.34552570456787 7.92771350399364 0.24590018252825285
    vertex 31.345525704567876 24.18812924137076 0.24590018252825285
    vertex 31.345525704567876 15.119922019306753 0.24590018252825285
  endloop
endfacet
facet normal 0.0 0.0 -1.0
  outer loop
    vertex 31.34552570456787 7.92771350399364 0.24590018252825285
    vertex 31.345525704567876 15.119922019306753 0.24590018252825285
    vertex 31.490682956389552 7.982970022257118 0.24590018252825285
  endloop
endfacet
facet normal 0.0 0.0 -1.0
  outer loop
    vertex 31.490682956389552 7.982970022257118 0.24590018252825285
    vertex 31.345525704567876 15.119922019306753 0.24590018252825285
    vertex 31.49068295638956 15.064665501043274 0.24590018252825285
  endloop
endfacet
facet normal 0.0 0.0 -1.0
  outer loop
    vertex 31.490682956389552 7.982970022257118 0.24590018252825285
    vertex 31.49068295638956 15.064665501043274 0.24590018252825285
    vertex 32.21804482554949 8.462844143525716 0.24590018252825285
  endloop
endfacet
facet normal 0.0 0.0 -1.0
  outer loop
    vertex 32.21804482554949 8.462844143525716 0.24590018252825285
    vertex 31.49068295638956 15.064665501043274 0.24590018252825285
    vertex 32.21804482554949 14.584791379774673 0.24590018252825285
  endloop
endfacet
facet normal 0.0 0.0 -1.0
  outer loop
    vertex 32.21804482554949 8.462844143525716 0.24590018252825285
    vertex 32.21804482554949 14.584791379774673 0.24590018252825285
    vertex 32.8234869723724 13.95807432414142 0.24590018252825285
  endloop
endfacet
facet normal 0.0 0.0 -1.0
  outer loop
    vertex 32.21804482554949 8.462844143525716 0.24590018252825285
    vertex 32.8234869723724 13.95807432414142 0.24590018252825285
    vertex 32.82348697237239 9.089561199158972 0.24590018252825285
  endloop
endfacet
facet normal 0.0 0.0 -1.0
  outer loop
    vertex 32.82348697237239 9.089561199158972 0.24590018252825285
    vertex 32.8234869723724 13.95807432414142 0.24590018252825285
    vertex 33.27796474880867 9.833055927920832 0.24590018252825285
  endloop
endfacet
facet normal 0.0 0.0 -1.0
  outer loop
    vertex 33.27796474880867 9.833055927920832 0.24590018252825285
    vertex 32.8234869723724 13.95807432414142 0.24590018252825285
    vertex 33.277964748808664 13.214579595379556 0.24590018252825285
  endloop
endfacet
facet normal 0.0 0.0 -1.0
  outer loop
    vertex 33.27796474880867 9.833055927920832 0.24590018252825285
    vertex 33.277964748808664 13.214579595379556 0.24590018252825285
    vertex 33.55967566368354 12.389974586049942 0.24590018252825285
  endloop
endfacet
facet normal 0.0 0.0 -1.0
  outer loop
    vertex 33.27796474880867 9.833055927920832 0.24590018252825285
    vertex 33.55967566368354 12.389974586049942 0.24590018252825285
    vertex 33.55967566368354 10.657660937250457 0.24590018252825285
  endloop
endfacet
facet normal 0.0 0.0 -1.0
  outer loop
    vertex 33.55967566368354 10.657660937250457 0.24590018252825285
    vertex 33.55967566368354 12.389974586049942 0.24590018252825285
    vertex 33.65510530539349 11.5238177616502 0.24590018252825285
  endloop
endfacet
facet normal 0.0 0.0 -1.0
  outer loop
    vertex 31.34552570456787 3.366619842969619 0.24590018252825285
    vertex 7.483018306166713 3.366619842969619 0.24590018252825285
    vertex 31.34552570456787 7.92771350399364 0.24590018252825285
  endloop
endfacet
facet normal 0.0 -1.0 0.0
  outer loop
    vertex 31.34552570456787 3.366619842969619 6.017325182528253
    vertex 7.483018306166713 3.366619842969619 0.24590018252825285
    vertex 31.34552570456787 3.366619842969619 0.24590018252825285
  endloop
endfacet
facet normal 0.0 -1.0 0.0
  outer loop
    vertex 7.483018306166713 3.366619842969619 0.24590018252825285
    vertex 31.34552570456787 3.366619842969619 6.017325182528253
    vertex 7.483018306166713 3.366619842969619 6.017325182528253
  endloop
endfacet
facet normal 1.0 -0.0 0.0
  outer loop
    vertex 31.34552570456787 7.92771350399364 0.24590018252825285
    vertex 31.34552570456787 3.366619842969619 6.017325182528253
    vertex 31.34552570456787 3.366619842969619 0.24590018252825285
  endloop
endfacet
facet normal 1.0 -0.0 0.0
  outer loop
    vertex 31.34552570456787 3.366619842969619 6.017325182528253
    vertex 31.34552570456787 7.92771350399364 0.24590018252825285
    vertex 31.34552570456787 7.92771350399364 6.017325182528253
  endloop
endfacet
facet normal 0.3557620848188481 -0.9345765559895813 0.0
  outer loop
    vertex 31.490682956389552 7.982970022257118 6.017325182528253
    vertex 31.34552570456787 7.92771350399364 0.24590018252825285
    vertex 31.490682956389552 7.982970022257118 0.24590018252825285
  endloop
endfacet
facet normal 0.3557620848188481 -0.9345765559895813 0.0
  outer loop
    vertex 31.34552570456787 7.92771350399364 0.24590018252825285
    vertex 31.490682956389552 7.982970022257118 6.017325182528253
    vertex 31.34552570456787 7.92771350399364 6.017325182528253
  endloop
endfacet
facet normal 0.5506945454466918 -0.8347068453147257 0.0
  outer loop
    vertex 32.21804482554949 8.462844143525716 6.017325182528253
    vertex 31.490682956389552 7.982970022257118 0.24590018252825285
    vertex 32.21804482554949 8.462844143525716 0.24590018252825285
  endloop
endfacet
facet normal 0.5506945454466918 -0.8347068453147257 0.0
  outer loop
    vertex 31.490682956389552 7.982970022257118 0.24590018252825285
    vertex 32.21804482554949 8.462844143525716 6.017325182528253
    vertex 31.490682956389552 7.982970022257118 6.017325182528253
  endloop
endfacet
facet normal 0.7192087440832574 -0.6947940575697116 0.0
  outer loop
    vertex 32.82348697237239 9.089561199158972 0.24590018252825285
    vertex 32.21804482554949 8.462844143525716 6.017325182528253
    vertex 32.21804482554949 8.462844143525716 0.24590018252825285
  endloop
endfacet
facet normal 0.7192087440832574 -0.6947940575697116 0.0
  outer loop
    vertex 32.21804482554949 8.462844143525716 6.017325182528253
    vertex 32.82348697237239 9.089561199158972 0.24590018252825285
    vertex 32.82348697237239 9.089561199158972 6.017325182528253
  endloop
endfacet
facet normal 0.8532206125538364 -0.5215501762182198 0.0
  outer loop
    vertex 33.27796474880867 9.833055927920832 0.24590018252825285
    vertex 32.82348697237239 9.089561199158972 6.017325182528253
    vertex 32.82348697237239 9.089561199158972 0.24590018252825285
  endloop
endfacet
facet normal 0.8532206125538364 -0.5215501762182198 0.0
  outer loop
    vertex 32.82348697237239 9.089561199158972 6.017325182528253
    vertex 33.27796474880867 9.833055927920832 0.24590018252825285
    vertex 33.27796474880867 9.833055927920832 6.017325182528253
  endloop
endfacet
facet normal 0.946301249972319 -0.3232861647222575 0.0
  outer loop
    vertex 33.55967566368354 10.657660937250457 0.24590018252825285
    vertex 33.27796474880867 9.833055927920832 6.017325182528253
    vertex 33.27796474880867 9.833055927920832 0.24590018252825285
  endloop
endfacet
facet normal 0.946301249972319 -0.3232861647222575 0.0
  outer loop
    vertex 33.27796474880867 9.833055927920832 6.017325182528253
    vertex 33.55967566368354 10.657660937250457 0.24590018252825285
    vertex 33.55967566368354 10.657660937250457 6.017325182528253
  endloop
endfacet
facet normal 0.9939853339817574 -0.10951326782255275 0.0
  outer loop
    vertex 33.65510530539349 11.5238177616502 0.24590018252825285
    vertex 33.55967566368354 10.657660937250457 6.017325182528253
    vertex 33.55967566368354 10.657660937250457 0.24590018252825285
  endloop
endfacet
facet normal 0.9939853339817574 -0.10951326782255275 0.0
  outer loop
    vertex 33.55967566368354 10.657660937250457 6.017325182528253
    vertex 33.65510530539349 11.5238177616502 0.24590018252825285
    vertex 33.65510530539349 11.5238177616502 6.017325182528253
  endloop
endfacet
facet normal 0.9939853339817574 0.1095132678225531 0.0
  outer loop
    vertex 33.55967566368354 12.389974586049942 0.24590018252825285
    vertex 33.65510530539349 11.5238177616502 6.017325182528253
    vertex 33.65510530539349 11.5238177616502 0.24590018252825285
  endloop
endfacet
facet normal 0.9939853339817574 0.1095132678225531 0.0
  outer loop
    vertex 33.65510530539349 11.5238177616502 6.017325182528253
    vertex 33.55967566368354 12.389974586049942 0.24590018252825285
    vertex 33.55967566368354 12.389974586049942 6.017325182528253
  endloop
endfacet
facet normal 0.9463012499723158 0.3232861647222673 0.0
  outer loop
    vertex 33.277964748808664 13.214579595379556 0.24590018252825285
    vertex 33.55967566368354 12.389974586049942 6.017325182528253
    vertex 33.55967566368354 12.389974586049942 0.24590018252825285
  endloop
endfacet
facet normal 0.9463012499723158 0.3232861647222673 0.0
  outer loop
    vertex 33.55967566368354 12.389974586049942 6.017325182528253
    vertex 33.277964748808664 13.214579595379556 0.24590018252825285
    vertex 33.277964748808664 13.214579595379556 6.017325182528253
  endloop
endfacet
facet normal 0.8532206125538431 0.5215501762182089 0.0
  outer loop
    vertex 32.8234869723724 13.95807432414142 0.24590018252825285
    vertex 33.277964748808664 13.214579595379556 6.017325182528253
    vertex 33.277964748808664 13.214579595379556 0.24590018252825285
  endloop
endfacet
facet normal 0.8532206125538431 0.5215501762182089 0.0
  outer loop
    vertex 33.277964748808664 13.214579595379556 6.017325182528253
    vertex 32.8234869723724 13.95807432414142 0.24590018252825285
    vertex 32.8234869723724 13.95807432414142 6.017325182528253
  endloop
endfacet
facet normal 0.7192087440832542 0.6947940575697149 0.0
  outer loop
    vertex 32.21804482554949 14.584791379774673 0.24590018252825285
    vertex 32.8234869723724 13.95807432414142 6.017325182528253
    vertex 32.8234869723724 13.95807432414142 0.24590018252825285
  endloop
endfacet
facet normal 0.7192087440832542 0.6947940575697149 0.0
  outer loop
    vertex 32.8234869723724 13.95807432414142 6.017325182528253
    vertex 32.21804482554949 14.584791379774673 0.24590018252825285
    vertex 32.21804482554949 14.584791379774673 6.017325182528253
  endloop
endfacet
facet normal 0.550694545446697 0.8347068453147223 0.0
  outer loop
    vertex 31.49068295638956 15.064665501043274 6.017325182528253
    vertex 32.21804482554949 14.584791379774673 0.24590018252825285
    vertex 31.49068295638956 15.064665501043274 0.24590018252825285
  endloop
endfacet
facet normal 0.550694545446697 0.8347068453147223 0.0
  outer loop
    vertex 32.21804482554949 14.584791379774673 0.24590018252825285
    vertex 31.49068295638956 15.064665501043274 6.017325182528253
    vertex 32.21804482554949 14.584791379774673 6.017325182528253
  endloop
endfacet
facet normal 0.3557620848188481 0.9345765559895813 0.0
  outer loop
    vertex 31.345525704567876 15.119922019306753 6.017325182528253
    vertex 31.49068295638956 15.064665501043274 0.24590018252825285
    vertex 31.345525704567876 15.119922019306753 0.24590018252825285
  endloop
endfacet
facet normal 0.3557620848188481 0.9345765559895813 0.0
  outer loop
    vertex 31.49068295638956 15.064665501043274 0.24590018252825285
    vertex 31.345525704567876 15.119922019306753 6.017325182528253
    vertex 31.49068295638956 15.064665501043274 6.017325182528253
  endloop
endfacet
facet normal 1.0 -0.0 0.0
  outer loop
    vertex 31.345525704567876 24.18812924137076 0.24590018252825285
    vertex 31.345525704567876 15.119922019306753 6.017325182528253
    vertex 31.345525704567876 15.119922019306753 0.24590018252825285
  endloop
endfacet
facet normal 1.0 -0.0 0.0
  outer loop
    vertex 31.345525704567876 15.119922019306753 6.017325182528253
    vertex 31.345525704567876 24.18812924137076 0.24590018252825285
    vertex 31.345525704567876 24.18812924137076 6.017325182528253
  endloop
endfacet
facet normal 0.0 1.0 0.0
  outer loop
    vertex 7.483018306166713 24.18812924137076 0.24590018252825285
    vertex 13.012842112780355 24.18812924137076 1.6374431825282512
    vertex 31.345525704567876 24.18812924137076 0.24590018252825285
  endloop
endfacet
facet normal 0.0 1.0 0.0
  outer loop
    vertex 13.012842112780355 24.18812924137076 1.6374431825282512
    vertex 7.483018306166713 24.18812924137076 0.24590018252825285
    vertex 7.483018306166713 24.18812924137076 6.017325182528253
  endloop
endfacet
facet normal 0.0 1.0 0.0
  outer loop
    vertex 13.012842112780355 24.18812924137076 1.6374431825282512
    vertex 7.483018306166713 24.18812924137076 6.017325182528253
    vertex 13.012842112780355 24.18812924137076 6.017325182528253
  endloop
endfacet
facet normal 0.0 1.0 0.0
  outer loop
    vertex 31.345525704567876 24.18812924137076 0.24590018252825285
    vertex 25.780174897954232 24.18812924137076 1.6374431825282512
    vertex 31.345525704567876 24.18812924137076 6.017325182528253
  endloop
endfacet
facet normal 0.0 1.0 0.0
  outer loop
    vertex 25.780174897954232 24.18812924137076 1.6374431825282512
    vertex 31.345525704567876 24.18812924137076 0.24590018252825285
    vertex 13.012842112780355 24.18812924137076 1.6374431825282512
  endloop
endfacet
facet normal 0.0 1.0 0.0
  outer loop
    vertex 31.345525704567876 24.18812924137076 6.017325182528253
    vertex 25.780174897954232 24.18812924137076 1.6374431825282512
    vertex 25.780174897954232 24.18812924137076 6.017325182528253
  endloop
endfacet
facet normal -1.0 -0.0 -0.0
  outer loop
    vertex 7.483018306166713 24.18812924137076 6.017325182528253
    vertex 7.483018306166713 3.366619842969619 0.24590018252825285
    vertex 7.483018306166713 3.366619842969619 6.017325182528253
  endloop
endfacet
facet normal -1.0 -0.0 -0.0
  outer loop
    vertex 7.483018306166713 3.366619842969619 0.24590018252825285
    vertex 7.483018306166713 24.18812924137076 6.017325182528253
    vertex 7.483018306166713 24.18812924137076 0.24590018252825285
  endloop
endfacet
facet normal 0.0 -1.0 0.0
  outer loop
    vertex 13.012842112780355 23.46363143475712 6.017325182528253
    vertex 8.207516112780354 23.46363143475712 1.6374431825282512
    vertex 13.012842112780355 23.46363143475712 1.6374431825282512
  endloop
endfacet
facet normal 0.0 -1.0 0.0
  outer loop
    vertex 8.207516112780354 23.46363143475712 1.6374431825282512
    vertex 13.012842112780355 23.46363143475712 6.017325182528253
    vertex 8.207516112780354 23.46363143475712 6.017325182528253
  endloop
endfacet
facet normal 1.0 -0.0 0.0
  outer loop
    vertex 13.012842112780355 24.18812924137076 1.6374431825282512
    vertex 13.012842112780355 23.46363143475712 6.017325182528253
    vertex 13.012842112780355 23.46363143475712 1.6374431825282512
  endloop
endfacet
facet normal 1.0 -0.0 0.0
  outer loop
    vertex 13.012842112780355 23.46363143475712 6.017325182528253
    vertex 13.012842112780355 24.18812924137076 1.6374431825282512
    vertex 13.012842112780355 24.18812924137076 6.017325182528253
  endloop
endfacet
facet normal -1.0 -0.0 -0.0
  outer loop
    vertex 30.62102789795423 23.46363143475712 6.017325182528253
    vertex 30.62102789795423 14.620499095101396 1.6374431825282512
    vertex 30.62102789795423 14.620499095101396 6.017325182528253
  endloop
endfacet
facet normal -1.0 -0.0 -0.0
  outer loop
    vertex 30.62102789795423 14.620499095101396 1.6374431825282512
    vertex 30.62102789795423 23.46363143475712 6.017325182528253
    vertex 30.62102789795423 23.46363143475712 1.6374431825282512
  endloop
endfacet
facet normal -0.3557620848188442 -0.9345765559895828 -0.0
  outer loop
    vertex 31.158334124854427 14.415964557782774 6.017325182528253
    vertex 30.62102789795423 14.620499095101396 1.6374431825282512
    vertex 31.158334124854427 14.415964557782774 1.6374431825282512
  endloop
endfacet
facet normal -0.3557620848188442 -0.9345765559895828 -0.0
  outer loop
    vertex 30.62102789795423 14.620499095101396 1.6374431825282512
    vertex 31.158334124854427 14.415964557782774 6.017325182528253
    vertex 30.62102789795423 14.620499095101396 6.017325182528253
  endloop
endfacet
facet normal -0.5506945454466995 -0.8347068453147206 -0.0
  outer loop
    vertex 31.752439676504178 14.024005765843356 6.017325182528253
    vertex 31.158334124854427 14.415964557782774 1.6374431825282512
    vertex 31.752439676504178 14.024005765843356 1.6374431825282512
  endloop
endfacet
facet normal -0.5506945454466995 -0.8347068453147206 -0.0
  outer loop
    vertex 31.158334124854427 14.415964557782774 1.6374431825282512
    vertex 31.752439676504178 14.024005765843356 6.017325182528253
    vertex 31.158334124854427 14.415964557782774 6.017325182528253
  endloop
endfacet
facet normal -0.7192087440832581 -0.6947940575697108 -0.0
  outer loop
    vertex 31.752439676504178 14.024005765843356 6.017325182528253
    vertex 32.24696180624637 13.512106396557842 1.6374431825282512
    vertex 32.24696180624637 13.512106396557842 6.017325182528253
  endloop
endfacet
facet normal -0.7192087440832581 -0.6947940575697108 -0.0
  outer loop
    vertex 32.24696180624637 13.512106396557842 1.6374431825282512
    vertex 31.752439676504178 14.024005765843356 6.017325182528253
    vertex 31.752439676504178 14.024005765843356 1.6374431825282512
  endloop
endfacet
facet normal -0.853220612553839 -0.5215501762182158 -0.0
  outer loop
    vertex 32.24696180624637 13.512106396557842 6.017325182528253
    vertex 32.618176990229095 12.904823605545015 1.6374431825282512
    vertex 32.618176990229095 12.904823605545015 6.017325182528253
  endloop
endfacet
facet normal -0.853220612553839 -0.5215501762182158 -0.0
  outer loop
    vertex 32.618176990229095 12.904823605545015 1.6374431825282512
    vertex 32.24696180624637 13.512106396557842 6.017325182528253
    vertex 32.24696180624637 13.512106396557842 1.6374431825282512
  endloop
endfacet
facet normal -0.9463012499723166 -0.32328616472226507 -0.0
  outer loop
    vertex 32.618176990229095 12.904823605545015 6.017325182528253
    vertex 32.84827706226173 12.231290341384861 1.6374431825282512
    vertex 32.84827706226173 12.231290341384861 6.017325182528253
  endloop
endfacet
facet normal -0.9463012499723166 -0.32328616472226507 -0.0
  outer loop
    vertex 32.84827706226173 12.231290341384861 1.6374431825282512
    vertex 32.618176990229095 12.904823605545015 6.017325182528253
    vertex 32.618176990229095 12.904823605545015 1.6374431825282512
  endloop
endfacet
facet normal -0.9939853339817578 -0.10951326782254944 -0.0
  outer loop
    vertex 32.84827706226173 12.231290341384861 6.017325182528253
    vertex 32.92622351826348 11.5238177616502 1.6374431825282512
    vertex 32.92622351826348 11.5238177616502 6.017325182528253
  endloop
endfacet
facet normal -0.9939853339817578 -0.10951326782254944 -0.0
  outer loop
    vertex 32.92622351826348 11.5238177616502 1.6374431825282512
    vertex 32.84827706226173 12.231290341384861 6.017325182528253
    vertex 32.84827706226173 12.231290341384861 1.6374431825282512
  endloop
endfacet
facet normal -0.993985333981757 0.10951326782255663 0.0
  outer loop
    vertex 32.92622351826348 11.5238177616502 6.017325182528253
    vertex 32.84827706226173 10.816345181915532 1.6374431825282512
    vertex 32.84827706226173 10.816345181915532 6.017325182528253
  endloop
endfacet
facet normal -0.993985333981757 0.10951326782255663 0.0
  outer loop
    vertex 32.84827706226173 10.816345181915532 1.6374431825282512
    vertex 32.92622351826348 11.5238177616502 6.017325182528253
    vertex 32.92622351826348 11.5238177616502 1.6374431825282512
  endloop
endfacet
facet normal -0.9463012499723195 0.3232861647222561 0.0
  outer loop
    vertex 32.84827706226173 10.816345181915532 6.017325182528253
    vertex 32.618176990229095 10.142811917755374 1.6374431825282512
    vertex 32.618176990229095 10.142811917755374 6.017325182528253
  endloop
endfacet
facet normal -0.9463012499723195 0.3232861647222561 0.0
  outer loop
    vertex 32.618176990229095 10.142811917755374 1.6374431825282512
    vertex 32.84827706226173 10.816345181915532 6.017325182528253
    vertex 32.84827706226173 10.816345181915532 1.6374431825282512
  endloop
endfacet
facet normal -0.8532206125538379 0.5215501762182175 0.0
  outer loop
    vertex 32.618176990229095 10.142811917755374 6.017325182528253
    vertex 32.24696180624637 9.535529126742551 1.6374431825282512
    vertex 32.24696180624637 9.535529126742551 6.017325182528253
  endloop
endfacet
facet normal -0.8532206125538379 0.5215501762182175 0.0
  outer loop
    vertex 32.24696180624637 9.535529126742551 1.6374431825282512
    vertex 32.618176990229095 10.142811917755374 6.017325182528253
    vertex 32.618176990229095 10.142811917755374 1.6374431825282512
  endloop
endfacet
facet normal -0.71920874408326 0.6947940575697089 0.0
  outer loop
    vertex 32.24696180624637 9.535529126742551 6.017325182528253
    vertex 31.752439676504178 9.023629757457034 1.6374431825282512
    vertex 31.752439676504178 9.023629757457034 6.017325182528253
  endloop
endfacet
facet normal -0.71920874408326 0.6947940575697089 0.0
  outer loop
    vertex 31.752439676504178 9.023629757457034 1.6374431825282512
    vertex 32.24696180624637 9.535529126742551 6.017325182528253
    vertex 32.24696180624637 9.535529126742551 1.6374431825282512
  endloop
endfacet
facet normal -0.550694545446688 0.8347068453147282 0.0
  outer loop
    vertex 31.158334124854417 8.631670965517621 6.017325182528253
    vertex 31.752439676504178 9.023629757457034 1.6374431825282512
    vertex 31.158334124854417 8.631670965517621 1.6374431825282512
  endloop
endfacet
facet normal -0.550694545446688 0.8347068453147282 0.0
  outer loop
    vertex 31.752439676504178 9.023629757457034 1.6374431825282512
    vertex 31.158334124854417 8.631670965517621 6.017325182528253
    vertex 31.752439676504178 9.023629757457034 6.017325182528253
  endloop
endfacet
facet normal -0.35576208481885074 0.9345765559895802 0.0
  outer loop
    vertex 30.62102789795423 8.427136428198999 6.017325182528253
    vertex 31.158334124854417 8.631670965517621 1.6374431825282512
    vertex 30.62102789795423 8.427136428198999 1.6374431825282512
  endloop
endfacet
facet normal -0.35576208481885074 0.9345765559895802 0.0
  outer loop
    vertex 31.158334124854417 8.631670965517621 1.6374431825282512
    vertex 30.62102789795423 8.427136428198999 6.017325182528253
    vertex 31.158334124854417 8.631670965517621 6.017325182528253
  endloop
endfacet
facet normal -1.0 -0.0 -0.0
  outer loop
    vertex 30.62102789795423 8.427136428198999 6.017325182528253
    vertex 30.62102789795423 4.091117649583261 1.6374431825282512
    vertex 30.62102789795423 4.091117649583261 6.017325182528253
  endloop
endfacet
facet normal -1.0 -0.0 -0.0
  outer loop
    vertex 30.62102789795423 4.091117649583261 1.6374431825282512
    vertex 30.62102789795423 8.427136428198999 6.017325182528253
    vertex 30.62102789795423 8.427136428198999 1.6374431825282512
  endloop
endfacet
facet normal 0.0 1.0 0.0
  outer loop
    vertex 8.207516112780354 4.091117649583261 6.017325182528253
    vertex 30.62102789795423 4.091117649583261 1.6374431825282512
    vertex 8.207516112780354 4.091117649583261 1.6374431825282512
  endloop
endfacet
facet normal 0.0 1.0 0.0
  outer loop
    vertex 30.62102789795423 4.091117649583261 1.6374431825282512
    vertex 8.207516112780354 4.091117649583261 6.017325182528253
    vertex 30.62102789795423 4.091117649583261 6.017325182528253
  endloop
endfacet
facet normal 1.0 -0.0 0.0
  outer loop
    vertex 8.207516112780354 23.46363143475712 1.6374431825282512
    vertex 8.207516112780354 4.091117649583261 6.017325182528253
    vertex 8.207516112780354 4.091117649583261 1.6374431825282512
  endloop
endfacet
facet normal 1.0 -0.0 0.0
  outer loop
    vertex 8.207516112780354 4.091117649583261 6.017325182528253
    vertex 8.207516112780354 23.46363143475712 1.6374431825282512
    vertex 8.207516112780354 23.46363143475712 6.017325182528253
  endloop
endfacet
facet normal 0.0 -1.0 0.0
  outer loop
    vertex 30.62102789795423 23.46363143475712 6.017325182528253
    vertex 25.780174897954232 23.46363143475712 1.6374431825282512
    vertex 30.62102789795423 23.46363143475712 1.6374431825282512
  endloop
endfacet
facet normal 0.0 -1.0 0.0
  outer loop
    vertex 25.780174897954232 23.46363143475712 1.6374431825282512
    vertex 30.62102789795423 23.46363143475712 6.017325182528253
    vertex 25.780174897954232 23.46363143475712 6.017325182528253
  endloop
endfacet
facet normal 0.0 0.0 1.0
  outer loop
    vertex 31.158334124854417 8.631670965517621 1.6374431825282512
    vertex 30.62102789795423 14.620499095101396 1.6374431825282512
    vertex 30.62102789795423 8.427136428198999 1.6374431825282512
  endloop
endfacet
facet normal 0.0 0.0 1.0
  outer loop
    vertex 30.62102789795423 14.620499095101396 1.6374431825282512
    vertex 31.158334124854417 8.631670965517621 1.6374431825282512
    vertex 31.158334124854427 14.415964557782774 1.6374431825282512
  endloop
endfacet
facet normal 0.0 0.0 1.0
  outer loop
    vertex 31.158334124854427 14.415964557782774 1.6374431825282512
    vertex 31.158334124854417 8.631670965517621 1.6374431825282512
    vertex 31.752439676504178 9.023629757457034 1.6374431825282512
  endloop
endfacet
facet normal 0.0 0.0 1.0
  outer loop
    vertex 31.158334124854427 14.415964557782774 1.6374431825282512
    vertex 31.752439676504178 9.023629757457034 1.6374431825282512
    vertex 31.752439676504178 14.024005765843356 1.6374431825282512
  endloop
endfacet
facet normal 0.0 0.0 1.0
  outer loop
    vertex 31.752439676504178 14.024005765843356 1.6374431825282512
    vertex 31.752439676504178 9.023629757457034 1.6374431825282512
    vertex 32.24696180624637 9.535529126742551 1.6374431825282512
  endloop
endfacet
facet normal 0.0 0.0 1.0
  outer loop
    vertex 31.752439676504178 14.024005765843356 1.6374431825282512
    vertex 32.24696180624637 9.535529126742551 1.6374431825282512
    vertex 32.24696180624637 13.512106396557842 1.6374431825282512
  endloop
endfacet
facet normal 0.0 0.0 1.0
  outer loop
    vertex 32.24696180624637 13.512106396557842 1.6374431825282512
    vertex 32.24696180624637 9.535529126742551 1.6374431825282512
    vertex 32.618176990229095 10.142811917755374 1.6374431825282512
  endloop
endfacet
facet normal 0.0 0.0 1.0
  outer loop
    vertex 32.24696180624637 13.512106396557842 1.6374431825282512
    vertex 32.618176990229095 10.142811917755374 1.6374431825282512
    vertex 32.618176990229095 12.904823605545015 1.6374431825282512
  endloop
endfacet
facet normal 0.0 0.0 1.0
  outer loop
    vertex 32.618176990229095 12.904823605545015 1.6374431825282512
    vertex 32.618176990229095 10.142811917755374 1.6374431825282512
    vertex 32.84827706226173 10.816345181915532 1.6374431825282512
  endloop
endfacet
facet normal 0.0 0.0 1.0
  outer loop
    vertex 32.618176990229095 12.904823605545015 1.6374431825282512
    vertex 32.84827706226173 10.816345181915532 1.6374431825282512
    vertex 32.84827706226173 12.231290341384861 1.6374431825282512
  endloop
endfacet
facet normal 0.0 0.0 1.0
  outer loop
    vertex 32.84827706226173 12.231290341384861 1.6374431825282512
    vertex 32.84827706226173 10.816345181915532 1.6374431825282512
    vertex 32.92622351826348 11.5238177616502 1.6374431825282512
  endloop
endfacet
facet normal 0.0 0.0 1.0
  outer loop
    vertex 30.62102789795423 4.091117649583261 1.6374431825282512
    vertex 8.207516112780354 23.46363143475712 1.6374431825282512
    vertex 8.207516112780354 4.091117649583261 1.6374431825282512
  endloop
endfacet
facet normal 0.0 0.0 1.0
  outer loop
    vertex 8.207516112780354 23.46363143475712 1.6374431825282512
    vertex 30.62102789795423 4.091117649583261 1.6374431825282512
    vertex 13.012842112780355 23.46363143475712 1.6374431825282512
  endloop
endfacet
facet normal 0.0 0.0 1.0
  outer loop
    vertex 13.012842112780355 23.46363143475712 1.6374431825282512
    vertex 30.62102789795423 4.091117649583261 1.6374431825282512
    vertex 13.012842112780355 24.18812924137076 1.6374431825282512
  endloop
endfacet
facet normal 0.0 0.0 1.0
  outer loop
    vertex 13.012842112780355 24.18812924137076 1.6374431825282512
    vertex 30.62102789795423 4.091117649583261 1.6374431825282512
    vertex 25.780174897954232 23.46363143475712 1.6374431825282512
  endloop
endfacet
facet normal 0.0 0.0 1.0
  outer loop
    vertex 25.780174897954232 23.46363143475712 1.6374431825282512
    vertex 30.62102789795423 4.091117649583261 1.6374431825282512
    vertex 30.62102789795423 23.46363143475712 1.6374431825282512
  endloop
endfacet
facet normal 0.0 0.0 1.0
  outer loop
    vertex 30.62102789795423 23.46363143475712 1.6374431825282512
    vertex 30.62102789795423 4.091117649583261 1.6374431825282512
    vertex 30.62102789795423 8.427136428198999 1.6374431825282512
  endloop
endfacet
facet normal 0.0 0.0 1.0
  outer loop
    vertex 30.62102789795423 23.46363143475712 1.6374431825282512
    vertex 30.62102789795423 8.427136428198999 1.6374431825282512
    vertex 30.62102789795423 14.620499095101396 1.6374431825282512
  endloop
endfacet
facet normal 0.0 0.0 1.0
  outer loop
    vertex 25.780174897954232 24.18812924137076 1.6374431825282512
    vertex 13.012842112780355 24.18812924137076 1.6374431825282512
    vertex 25.780174897954232 23.46363143475712 1.6374431825282512
  endloop
endfacet
facet normal -1.0 -0.0 -0.0
  outer loop
    vertex 25.780174897954232 24.18812924137076 6.017325182528253
    vertex 25.780174897954232 23.46363143475712 1.6374431825282512
    vertex 25.780174897954232 23.46363143475712 6.017325182528253
  endloop
endfacet
facet normal -1.0 -0.0 -0.0
  outer loop
    vertex 25.780174897954232 23.46363143475712 1.6374431825282512
    vertex 25.780174897954232 24.18812924137076 6.017325182528253
    vertex 25.780174897954232 24.18812924137076 1.6374431825282512
  endloop
endfacet
facet normal 0.0 0.0 1.0
  outer loop
    vertex 31.158334124854427 14.415964557782774 6.017325182528253
    vertex 30.62102789795423 23.46363143475712 6.017325182528253
    vertex 30.62102789795423 14.620499095101396 6.017325182528253
  endloop
endfacet
facet normal 0.0 0.0 1.0
  outer loop
    vertex 7.483018306166713 3.366619842969619 6.017325182528253
    vertex 8.207516112780354 4.091117649583261 6.017325182528253
    vertex 7.483018306166713 24.18812924137076 6.017325182528253
  endloop
endfacet
facet normal 0.0 0.0 1.0
  outer loop
    vertex 8.207516112780354 4.091117649583261 6.017325182528253
    vertex 7.483018306166713 3.366619842969619 6.017325182528253
    vertex 31.34552570456787 3.366619842969619 6.017325182528253
  endloop
endfacet
facet normal 0.0 0.0 1.0
  outer loop
    vertex 8.207516112780354 4.091117649583261 6.017325182528253
    vertex 31.34552570456787 3.366619842969619 6.017325182528253
    vertex 30.62102789795423 4.091117649583261 6.017325182528253
  endloop
endfacet
facet normal 0.0 0.0 1.0
  outer loop
    vertex 30.62102789795423 4.091117649583261 6.017325182528253
    vertex 31.34552570456787 3.366619842969619 6.017325182528253
    vertex 30.62102789795423 8.427136428198999 6.017325182528253
  endloop
endfacet
facet normal 0.0 0.0 1.0
  outer loop
    vertex 30.62102789795423 8.427136428198999 6.017325182528253
    vertex 31.34552570456787 3.366619842969619 6.017325182528253
    vertex 31.158334124854417 8.631670965517621 6.017325182528253
  endloop
endfacet
facet normal 0.0 0.0 1.0
  outer loop
    vertex 31.158334124854417 8.631670965517621 6.017325182528253
    vertex 31.34552570456787 3.366619842969619 6.017325182528253
    vertex 31.34552570456787 7.92771350399364 6.017325182528253
  endloop
endfacet
facet normal 0.0 0.0 1.0
  outer loop
    vertex 31.158334124854417 8.631670965517621 6.017325182528253
    vertex 31.34552570456787 7.92771350399364 6.017325182528253
    vertex 31.752439676504178 9.023629757457034 6.017325182528253
  endloop
endfacet
facet normal 0.0 0.0 1.0
  outer loop
    vertex 31.752439676504178 9.023629757457034 6.017325182528253
    vertex 31.34552570456787 7.92771350399364 6.017325182528253
    vertex 31.490682956389552 7.982970022257118 6.017325182528253
  endloop
endfacet
facet normal 0.0 0.0 1.0
  outer loop
    vertex 31.752439676504178 9.023629757457034 6.017325182528253
    vertex 31.490682956389552 7.982970022257118 6.017325182528253
    vertex 32.21804482554949 8.462844143525716 6.017325182528253
  endloop
endfacet
facet normal 0.0 0.0 1.0
  outer loop
    vertex 31.752439676504178 9.023629757457034 6.017325182528253
    vertex 32.21804482554949 8.462844143525716 6.017325182528253
    vertex 32.24696180624637 9.535529126742551 6.017325182528253
  endloop
endfacet
facet normal 0.0 0.0 1.0
  outer loop
    vertex 32.24696180624637 9.535529126742551 6.017325182528253
    vertex 32.21804482554949 8.462844143525716 6.017325182528253
    vertex 32.82348697237239 9.089561199158972 6.017325182528253
  endloop
endfacet
facet normal 0.0 0.0 1.0
  outer loop
    vertex 32.24696180624637 9.535529126742551 6.017325182528253
    vertex 32.82348697237239 9.089561199158972 6.017325182528253
    vertex 32.618176990229095 10.142811917755374 6.017325182528253
  endloop
endfacet
facet normal 0.0 0.0 1.0
  outer loop
    vertex 32.618176990229095 10.142811917755374 6.017325182528253
    vertex 32.82348697237239 9.089561199158972 6.017325182528253
    vertex 32.84827706226173 10.816345181915532 6.017325182528253
  endloop
endfacet
facet normal 0.0 0.0 1.0
  outer loop
    vertex 32.84827706226173 10.816345181915532 6.017325182528253
    vertex 32.82348697237239 9.089561199158972 6.017325182528253
    vertex 33.27796474880867 9.833055927920832 6.017325182528253
  endloop
endfacet
facet normal 0.0 0.0 1.0
  outer loop
    vertex 32.84827706226173 10.816345181915532 6.017325182528253
    vertex 33.27796474880867 9.833055927920832 6.017325182528253
    vertex 32.92622351826348 11.5238177616502 6.017325182528253
  endloop
endfacet
facet normal 0.0 0.0 1.0
  outer loop
    vertex 32.92622351826348 11.5238177616502 6.017325182528253
    vertex 33.27796474880867 9.833055927920832 6.017325182528253
    vertex 33.277964748808664 13.214579595379556 6.017325182528253
  endloop
endfacet
facet normal 0.0 0.0 1.0
  outer loop
    vertex 33.277964748808664 13.214579595379556 6.017325182528253
    vertex 33.27796474880867 9.833055927920832 6.017325182528253
    vertex 33.55967566368354 12.389974586049942 6.017325182528253
  endloop
endfacet
facet normal 0.0 0.0 1.0
  outer loop
    vertex 33.55967566368354 12.389974586049942 6.017325182528253
    vertex 33.27796474880867 9.833055927920832 6.017325182528253
    vertex 33.55967566368354 10.657660937250457 6.017325182528253
  endloop
endfacet
facet normal 0.0 0.0 1.0
  outer loop
    vertex 33.55967566368354 12.389974586049942 6.017325182528253
    vertex 33.55967566368354 10.657660937250457 6.017325182528253
    vertex 33.65510530539349 11.5238177616502 6.017325182528253
  endloop
endfacet
facet normal 0.0 0.0 1.0
  outer loop
    vertex 31.752439676504178 14.024005765843356 6.017325182528253
    vertex 31.345525704567876 15.119922019306753 6.017325182528253
    vertex 31.158334124854427 14.415964557782774 6.017325182528253
  endloop
endfacet
facet normal 0.0 0.0 1.0
  outer loop
    vertex 31.345525704567876 15.119922019306753 6.017325182528253
    vertex 31.752439676504178 14.024005765843356 6.017325182528253
    vertex 31.49068295638956 15.064665501043274 6.017325182528253
  endloop
endfacet
facet normal 0.0 0.0 1.0
  outer loop
    vertex 31.49068295638956 15.064665501043274 6.017325182528253
    vertex 31.752439676504178 14.024005765843356 6.017325182528253
    vertex 32.21804482554949 14.584791379774673 6.017325182528253
  endloop
endfacet
facet normal 0.0 0.0 1.0
  outer loop
    vertex 32.21804482554949 14.584791379774673 6.017325182528253
    vertex 31.752439676504178 14.024005765843356 6.017325182528253
    vertex 32.24696180624637 13.512106396557842 6.017325182528253
  endloop
endfacet
facet normal 0.0 0.0 1.0
  outer loop
    vertex 32.21804482554949 14.584791379774673 6.017325182528253
    vertex 32.24696180624637 13.512106396557842 6.017325182528253
    vertex 32.8234869723724 13.95807432414142 6.017325182528253
  endloop
endfacet
facet normal 0.0 0.0 1.0
  outer loop
    vertex 32.8234869723724 13.95807432414142 6.017325182528253
    vertex 32.24696180624637 13.512106396557842 6.017325182528253
    vertex 32.618176990229095 12.904823605545015 6.017325182528253
  endloop
endfacet
facet normal 0.0 0.0 1.0
  outer loop
    vertex 32.8234869723724 13.95807432414142 6.017325182528253
    vertex 32.618176990229095 12.904823605545015 6.017325182528253
    vertex 32.84827706226173 12.231290341384861 6.017325182528253
  endloop
endfacet
facet normal 0.0 0.0 1.0
  outer loop
    vertex 32.8234869723724 13.95807432414142 6.017325182528253
    vertex 32.84827706226173 12.231290341384861 6.017325182528253
    vertex 33.277964748808664 13.214579595379556 6.017325182528253
  endloop
endfacet
facet normal 0.0 0.0 1.0
  outer loop
    vertex 33.277964748808664 13.214579595379556 6.017325182528253
    vertex 32.84827706226173 12.231290341384861 6.017325182528253
    vertex 32.92622351826348 11.5238177616502 6.017325182528253
  endloop
endfacet
facet normal 0.0 0.0 1.0
  outer loop
    vertex 30.62102789795423 23.46363143475712 6.017325182528253
    vertex 25.780174897954232 24.18812924137076 6.017325182528253
    vertex 25.780174897954232 23.46363143475712 6.017325182528253
  endloop
endfacet
facet normal 0.0 0.0 1.0
  outer loop
    vertex 25.780174897954232 24.18812924137076 6.017325182528253
    vertex 30.62102789795423 23.46363143475712 6.017325182528253
    vertex 31.345525704567876 24.18812924137076 6.017325182528253
  endloop
endfacet
facet normal 0.0 0.0 1.0
  outer loop
    vertex 31.345525704567876 24.18812924137076 6.017325182528253
    vertex 30.62102789795423 23.46363143475712 6.017325182528253
    vertex 31.158334124854427 14.415964557782774 6.017325182528253
  endloop
endfacet
facet normal 0.0 0.0 1.0
  outer loop
    vertex 31.345525704567876 24.18812924137076 6.017325182528253
    vertex 31.158334124854427 14.415964557782774 6.017325182528253
    vertex 31.345525704567876 15.119922019306753 6.017325182528253
  endloop
endfacet
facet normal 0.0 0.0 1.0
  outer loop
    vertex 7.483018306166713 24.18812924137076 6.017325182528253
    vertex 8.207516112780354 23.46363143475712 6.017325182528253
    vertex 13.012842112780355 24.18812924137076 6.017325182528253
  endloop
endfacet
facet normal 0.0 0.0 1.0
  outer loop
    vertex 8.207516112780354 23.46363143475712 6.017325182528253
    vertex 7.483018306166713 24.18812924137076 6.017325182528253
    vertex 8.207516112780354 4.091117649583261 6.017325182528253
  endloop
endfacet
facet normal 0.0 0.0 1.0
  outer loop
    vertex 13.012842112780355 24.18812924137076 6.017325182528253
    vertex 8.207516112780354 23.46363143475712 6.017325182528253
    vertex 13.012842112780355 23.46363143475712 6.017325182528253
  endloop
endfacet
endsolid DuckyBR_Case
